<?xml version="1.0" standalone="no"?><svg xmlns="http://www.w3.org/2000/svg" viewBox="0 0 1440 320"><path fill="#00cba9" fill-opacity="1" d="M0,256L40,224C80,192,160,128,240,122.7C320,117,400,171,480,208C560,245,640,267,720,282.7C800,299,880,309,960,309.3C1040,309,1120,299,1200,250.7C1280,203,1360,117,1400,74.7L1440,32L1440,320L1400,320C1360,320,1280,320,1200,320C1120,320,1040,320,960,320C880,320,800,320,720,320C640,320,560,320,480,320C400,320,320,320,240,320C160,320,80,320,40,320L0,320Z"></path></svg>